<svg width="257" height="37" viewBox="0 0 257 37" fill="none" xmlns="http://www.w3.org/2000/svg">
<path d="M14.1837 36.384C11.1437 36.384 8.77574 35.616 7.07974 34.08C5.38374 32.512 4.53574 30.192 4.53574 27.12V4.464H12.0237V27.024C12.0237 28.112 12.3117 28.96 12.8877 29.568C13.4637 30.144 14.2477 30.432 15.2397 30.432C16.4237 30.432 17.4317 30.112 18.2637 29.472L20.2797 34.752C19.5117 35.296 18.5837 35.712 17.4957 36C16.4397 36.256 15.3357 36.384 14.1837 36.384ZM0.55174 16.512V10.752H18.4557V16.512H0.55174ZM39.89 36V30.96L39.41 29.856V20.832C39.41 19.232 38.914 17.984 37.922 17.088C36.962 16.192 35.474 15.744 33.458 15.744C32.082 15.744 30.722 15.968 29.378 16.416C28.066 16.832 26.946 17.408 26.018 18.144L23.33 12.912C24.738 11.92 26.434 11.152 28.418 10.608C30.402 10.064 32.418 9.792 34.466 9.792C38.402 9.792 41.458 10.72 43.634 12.576C45.81 14.432 46.898 17.328 46.898 21.264V36H39.89ZM32.018 36.384C30.002 36.384 28.274 36.048 26.834 35.376C25.394 34.672 24.29 33.728 23.522 32.544C22.754 31.36 22.37 30.032 22.37 28.56C22.37 27.024 22.738 25.68 23.474 24.528C24.242 23.376 25.442 22.48 27.074 21.84C28.706 21.168 30.834 20.832 33.458 20.832H40.322V25.2H34.274C32.514 25.2 31.298 25.488 30.626 26.064C29.986 26.64 29.666 27.36 29.666 28.224C29.666 29.184 30.034 29.952 30.77 30.528C31.538 31.072 32.578 31.344 33.89 31.344C35.138 31.344 36.258 31.056 37.25 30.48C38.242 29.872 38.962 28.992 39.41 27.84L40.562 31.296C40.018 32.96 39.026 34.224 37.586 35.088C36.146 35.952 34.29 36.384 32.018 36.384ZM53.2419 36V0.383998H60.7299V36H53.2419ZM80.0623 36.384C77.1183 36.384 74.5263 35.808 72.2863 34.656C70.0783 33.504 68.3663 31.936 67.1503 29.952C65.9343 27.936 65.3263 25.648 65.3263 23.088C65.3263 20.496 65.9183 18.208 67.1023 16.224C68.3183 14.208 69.9663 12.64 72.0463 11.52C74.1263 10.368 76.4783 9.792 79.1023 9.792C81.6303 9.792 83.9023 10.336 85.9183 11.424C87.9663 12.48 89.5823 14.016 90.7663 16.032C91.9503 18.016 92.5423 20.4 92.5423 23.184C92.5423 23.472 92.5263 23.808 92.4943 24.192C92.4623 24.544 92.4303 24.88 92.3983 25.2H71.4223V20.832H88.4623L85.5823 22.128C85.5823 20.784 85.3103 19.616 84.7663 18.624C84.2223 17.632 83.4703 16.864 82.5103 16.32C81.5503 15.744 80.4303 15.456 79.1503 15.456C77.8703 15.456 76.7343 15.744 75.7423 16.32C74.7823 16.864 74.0303 17.648 73.4863 18.672C72.9423 19.664 72.6703 20.848 72.6703 22.224V23.376C72.6703 24.784 72.9743 26.032 73.5823 27.12C74.2223 28.176 75.1023 28.992 76.2223 29.568C77.3743 30.112 78.7183 30.384 80.2543 30.384C81.6303 30.384 82.8303 30.176 83.8543 29.76C84.9103 29.344 85.8703 28.72 86.7343 27.888L90.7183 32.208C89.5343 33.552 88.0463 34.592 86.2543 35.328C84.4623 36.032 82.3983 36.384 80.0623 36.384ZM112.79 9.792C114.838 9.792 116.662 10.208 118.262 11.04C119.894 11.84 121.174 13.088 122.102 14.784C123.03 16.448 123.494 18.592 123.494 21.216V36H116.006V22.368C116.006 20.288 115.542 18.752 114.614 17.76C113.718 16.768 112.438 16.272 110.774 16.272C109.59 16.272 108.518 16.528 107.558 17.04C106.63 17.52 105.894 18.272 105.35 19.296C104.838 20.32 104.582 21.632 104.582 23.232V36H97.0944V10.176H104.246V17.328L102.902 15.168C103.83 13.44 105.158 12.112 106.886 11.184C108.614 10.256 110.582 9.792 112.79 9.792ZM140.409 36.384C137.369 36.384 135.001 35.616 133.305 34.08C131.609 32.512 130.761 30.192 130.761 27.12V4.464H138.249V27.024C138.249 28.112 138.537 28.96 139.113 29.568C139.689 30.144 140.473 30.432 141.465 30.432C142.649 30.432 143.657 30.112 144.489 29.472L146.505 34.752C145.737 35.296 144.809 35.712 143.721 36C142.665 36.256 141.561 36.384 140.409 36.384ZM126.777 16.512V10.752H144.681V16.512H126.777ZM153.576 36.384C152.296 36.384 151.192 35.952 150.264 35.088C149.368 34.192 148.92 33.056 148.92 31.68C148.92 30.304 149.368 29.2 150.264 28.368C151.192 27.504 152.296 27.072 153.576 27.072C154.888 27.072 155.992 27.504 156.888 28.368C157.784 29.2 158.232 30.304 158.232 31.68C158.232 33.056 157.784 34.192 156.888 35.088C155.992 35.952 154.888 36.384 153.576 36.384Z" fill="#55EFC4"/>
<path d="M178.569 9.792C180.617 9.792 182.441 10.208 184.041 11.04C185.673 11.84 186.953 13.088 187.881 14.784C188.809 16.448 189.273 18.592 189.273 21.216V36H181.785V22.368C181.785 20.288 181.321 18.752 180.393 17.76C179.497 16.768 178.217 16.272 176.553 16.272C175.369 16.272 174.297 16.528 173.337 17.04C172.409 17.52 171.673 18.272 171.129 19.296C170.617 20.32 170.361 21.632 170.361 23.232V36H162.873V0.383998H170.361V17.328L168.681 15.168C169.609 13.44 170.937 12.112 172.665 11.184C174.393 10.256 176.361 9.792 178.569 9.792ZM206.524 36.384C204.38 36.384 202.46 35.968 200.764 35.136C199.1 34.304 197.804 33.04 196.876 31.344C195.948 29.616 195.484 27.424 195.484 24.768V10.176H202.972V23.664C202.972 25.808 203.42 27.392 204.316 28.416C205.244 29.408 206.54 29.904 208.204 29.904C209.356 29.904 210.38 29.664 211.276 29.184C212.172 28.672 212.876 27.904 213.388 26.88C213.9 25.824 214.156 24.512 214.156 22.944V10.176H221.644V36H214.54V28.896L215.836 30.96C214.972 32.752 213.692 34.112 211.996 35.04C210.332 35.936 208.508 36.384 206.524 36.384ZM243.412 36.384C241.14 36.384 239.188 35.904 237.556 34.944C235.924 33.984 234.676 32.528 233.812 30.576C232.948 28.592 232.516 26.096 232.516 23.088C232.516 20.048 232.964 17.552 233.86 15.6C234.788 13.648 236.068 12.192 237.7 11.232C239.332 10.272 241.236 9.792 243.412 9.792C245.844 9.792 248.02 10.336 249.94 11.424C251.892 12.512 253.428 14.048 254.548 16.032C255.7 18.016 256.276 20.368 256.276 23.088C256.276 25.776 255.7 28.112 254.548 30.096C253.428 32.08 251.892 33.632 249.94 34.752C248.02 35.84 245.844 36.384 243.412 36.384ZM228.148 36V0.383998H235.636V15.408L235.156 23.04L235.3 30.72V36H228.148ZM242.116 30.24C243.364 30.24 244.468 29.952 245.428 29.376C246.42 28.8 247.204 27.984 247.78 26.928C248.388 25.84 248.692 24.56 248.692 23.088C248.692 21.584 248.388 20.304 247.78 19.248C247.204 18.192 246.42 17.376 245.428 16.8C244.468 16.224 243.364 15.936 242.116 15.936C240.868 15.936 239.748 16.224 238.756 16.8C237.764 17.376 236.98 18.192 236.404 19.248C235.828 20.304 235.54 21.584 235.54 23.088C235.54 24.56 235.828 25.84 236.404 26.928C236.98 27.984 237.764 28.8 238.756 29.376C239.748 29.952 240.868 30.24 242.116 30.24Z" fill="white"/>
</svg>
