<svg width="127" height="19" viewBox="0 0 127 19" fill="none" xmlns="http://www.w3.org/2000/svg">
<path d="M7.06636 18.192C5.54636 18.192 4.36236 17.808 3.51436 17.04C2.66636 16.256 2.24236 15.096 2.24236 13.56V2.232H5.98636V13.512C5.98636 14.056 6.13036 14.48 6.41836 14.784C6.70636 15.072 7.09836 15.216 7.59436 15.216C8.18636 15.216 8.69036 15.056 9.10636 14.736L10.1144 17.376C9.73036 17.648 9.26636 17.856 8.72236 18C8.19436 18.128 7.64236 18.192 7.06636 18.192ZM0.250361 8.256V5.376H9.20236V8.256H0.250361ZM19.7029 18V15.48L19.4629 14.928V10.416C19.4629 9.616 19.2149 8.992 18.7189 8.544C18.2389 8.096 17.4949 7.872 16.4869 7.872C15.7989 7.872 15.1189 7.984 14.4469 8.208C13.7909 8.416 13.2309 8.704 12.7669 9.072L11.4229 6.456C12.1269 5.96 12.9749 5.576 13.9669 5.304C14.9589 5.032 15.9669 4.896 16.9909 4.896C18.9589 4.896 20.4869 5.36 21.5749 6.288C22.6629 7.216 23.2069 8.664 23.2069 10.632V18H19.7029ZM15.7669 18.192C14.7589 18.192 13.8949 18.024 13.1749 17.688C12.4549 17.336 11.9029 16.864 11.5189 16.272C11.1349 15.68 10.9429 15.016 10.9429 14.28C10.9429 13.512 11.1269 12.84 11.4949 12.264C11.8789 11.688 12.4789 11.24 13.2949 10.92C14.1109 10.584 15.1749 10.416 16.4869 10.416H19.9189V12.6H16.8949C16.0149 12.6 15.4069 12.744 15.0709 13.032C14.7509 13.32 14.5909 13.68 14.5909 14.112C14.5909 14.592 14.7749 14.976 15.1429 15.264C15.5269 15.536 16.0469 15.672 16.7029 15.672C17.3269 15.672 17.8869 15.528 18.3829 15.24C18.8789 14.936 19.2389 14.496 19.4629 13.92L20.0389 15.648C19.7669 16.48 19.2709 17.112 18.5509 17.544C17.8309 17.976 16.9029 18.192 15.7669 18.192ZM26.1623 18V0.191999H29.9063V18H26.1623ZM39.356 18.192C37.884 18.192 36.588 17.904 35.468 17.328C34.364 16.752 33.508 15.968 32.9 14.976C32.292 13.968 31.988 12.824 31.988 11.544C31.988 10.248 32.284 9.104 32.876 8.112C33.484 7.104 34.308 6.32 35.348 5.76C36.388 5.184 37.564 4.896 38.876 4.896C40.14 4.896 41.276 5.168 42.284 5.712C43.308 6.24 44.116 7.008 44.708 8.016C45.3 9.008 45.596 10.2 45.596 11.592C45.596 11.736 45.588 11.904 45.572 12.096C45.556 12.272 45.54 12.44 45.524 12.6H35.036V10.416H43.556L42.116 11.064C42.116 10.392 41.98 9.808 41.708 9.312C41.436 8.816 41.06 8.432 40.58 8.16C40.1 7.872 39.54 7.728 38.9 7.728C38.26 7.728 37.692 7.872 37.196 8.16C36.716 8.432 36.34 8.824 36.068 9.336C35.796 9.832 35.66 10.424 35.66 11.112V11.688C35.66 12.392 35.812 13.016 36.116 13.56C36.436 14.088 36.876 14.496 37.436 14.784C38.012 15.056 38.684 15.192 39.452 15.192C40.14 15.192 40.74 15.088 41.252 14.88C41.78 14.672 42.26 14.36 42.692 13.944L44.684 16.104C44.092 16.776 43.348 17.296 42.452 17.664C41.556 18.016 40.524 18.192 39.356 18.192ZM55.5035 4.896C56.5275 4.896 57.4395 5.104 58.2395 5.52C59.0555 5.92 59.6955 6.544 60.1595 7.392C60.6235 8.224 60.8555 9.296 60.8555 10.608V18H57.1115V11.184C57.1115 10.144 56.8795 9.376 56.4155 8.88C55.9675 8.384 55.3275 8.136 54.4955 8.136C53.9035 8.136 53.3675 8.264 52.8875 8.52C52.4235 8.76 52.0555 9.136 51.7835 9.648C51.5275 10.16 51.3995 10.816 51.3995 11.616V18H47.6555V5.088H51.2315V8.664L50.5595 7.584C51.0235 6.72 51.6875 6.056 52.5515 5.592C53.4155 5.128 54.3995 4.896 55.5035 4.896ZM69.0961 18.192C67.5761 18.192 66.3921 17.808 65.5441 17.04C64.6961 16.256 64.2721 15.096 64.2721 13.56V2.232H68.0161V13.512C68.0161 14.056 68.1601 14.48 68.4481 14.784C68.7361 15.072 69.1281 15.216 69.6241 15.216C70.2161 15.216 70.7201 15.056 71.1361 14.736L72.1441 17.376C71.7601 17.648 71.2961 17.856 70.7521 18C70.2241 18.128 69.6721 18.192 69.0961 18.192ZM62.2801 8.256V5.376H71.2321V8.256H62.2801ZM75.4631 18.192C74.8231 18.192 74.2711 17.976 73.8071 17.544C73.3591 17.096 73.1351 16.528 73.1351 15.84C73.1351 15.152 73.3591 14.6 73.8071 14.184C74.2711 13.752 74.8231 13.536 75.4631 13.536C76.1191 13.536 76.6711 13.752 77.1191 14.184C77.5671 14.6 77.7911 15.152 77.7911 15.84C77.7911 16.528 77.5671 17.096 77.1191 17.544C76.6711 17.976 76.1191 18.192 75.4631 18.192Z" fill="#55EFC4"/>
<path d="M87.7432 4.896C88.7672 4.896 89.6792 5.104 90.4792 5.52C91.2952 5.92 91.9352 6.544 92.3992 7.392C92.8632 8.224 93.0952 9.296 93.0952 10.608V18H89.3512V11.184C89.3512 10.144 89.1192 9.376 88.6552 8.88C88.2072 8.384 87.5672 8.136 86.7352 8.136C86.1432 8.136 85.6072 8.264 85.1272 8.52C84.6632 8.76 84.2952 9.136 84.0232 9.648C83.7672 10.16 83.6392 10.816 83.6392 11.616V18H79.8952V0.191999H83.6392V8.664L82.7992 7.584C83.2632 6.72 83.9272 6.056 84.7912 5.592C85.6552 5.128 86.6392 4.896 87.7432 4.896ZM101.504 18.192C100.432 18.192 99.4719 17.984 98.6239 17.568C97.7919 17.152 97.1439 16.52 96.6799 15.672C96.2159 14.808 95.9839 13.712 95.9839 12.384V5.088H99.7279V11.832C99.7279 12.904 99.9519 13.696 100.4 14.208C100.864 14.704 101.512 14.952 102.344 14.952C102.92 14.952 103.432 14.832 103.88 14.592C104.328 14.336 104.68 13.952 104.936 13.44C105.192 12.912 105.32 12.256 105.32 11.472V5.088H109.064V18H105.512V14.448L106.16 15.48C105.728 16.376 105.088 17.056 104.24 17.52C103.408 17.968 102.496 18.192 101.504 18.192ZM119.731 18.192C118.595 18.192 117.619 17.952 116.803 17.472C115.987 16.992 115.363 16.264 114.931 15.288C114.499 14.296 114.283 13.048 114.283 11.544C114.283 10.024 114.507 8.776 114.955 7.8C115.419 6.824 116.059 6.096 116.875 5.616C117.691 5.136 118.643 4.896 119.731 4.896C120.947 4.896 122.035 5.168 122.995 5.712C123.971 6.256 124.739 7.024 125.299 8.016C125.875 9.008 126.163 10.184 126.163 11.544C126.163 12.888 125.875 14.056 125.299 15.048C124.739 16.04 123.971 16.816 122.995 17.376C122.035 17.92 120.947 18.192 119.731 18.192ZM112.099 18V0.191999H115.843V7.704L115.603 11.52L115.675 15.36V18H112.099ZM119.083 15.12C119.707 15.12 120.259 14.976 120.739 14.688C121.235 14.4 121.627 13.992 121.915 13.464C122.219 12.92 122.371 12.28 122.371 11.544C122.371 10.792 122.219 10.152 121.915 9.624C121.627 9.096 121.235 8.688 120.739 8.4C120.259 8.112 119.707 7.968 119.083 7.968C118.459 7.968 117.899 8.112 117.403 8.4C116.907 8.688 116.515 9.096 116.227 9.624C115.939 10.152 115.795 10.792 115.795 11.544C115.795 12.28 115.939 12.92 116.227 13.464C116.515 13.992 116.907 14.4 117.403 14.688C117.899 14.976 118.459 15.12 119.083 15.12Z" fill="white"/>
</svg>
